<svg width="40" height="40" viewBox="0 0 40 40" fill="none" xmlns="http://www.w3.org/2000/svg">
<path d="M30.7692 10.7692C29.9215 10.7692 29.2308 10.0784 29.2308 9.23074V6.15382C29.2308 5.30613 29.9215 4.61536 30.7692 4.61536H33.8462C34.6939 4.61536 35.3846 5.30613 35.3846 6.15382V9.23074C35.3846 10.0784 34.6939 10.7692 33.8462 10.7692H30.7692Z" fill="#444444"/>
<path d="M20 14.1354C18.8831 14.1354 17.8523 14.4631 16.9646 15.0015C17.2415 14.9154 17.5292 14.8585 17.8323 14.8585C19.4754 14.8585 20.8061 16.1892 20.8061 17.8338C20.8061 19.4738 19.4754 20.8077 17.8323 20.8077C16.1892 20.8077 14.8585 19.4754 14.8585 17.8338C14.8585 17.5277 14.9185 17.24 15.0031 16.9646C14.4615 17.8523 14.1354 18.8831 14.1354 20C14.1354 23.2415 16.7585 25.8661 20.0015 25.8661C23.24 25.8661 25.8677 23.2431 25.8677 20C25.8677 16.7569 23.2385 14.1354 20 14.1354Z" fill="#444444"/>
<path d="M20 10.7693C25.0969 10.7693 29.2308 14.9016 29.2308 20.0001C29.2308 25.0985 25.0954 29.2308 20 29.2308C14.9031 29.2308 10.7692 25.0985 10.7692 20.0001C10.7692 14.9016 14.9031 10.7693 20 10.7693ZM20 7.69238C13.2139 7.69238 7.69232 13.2139 7.69232 20.0001C7.69232 26.7862 13.2139 32.3078 20 32.3078C26.7862 32.3078 32.3077 26.7862 32.3077 20.0001C32.3077 13.2139 26.7862 7.69238 20 7.69238Z" fill="#444444"/>
<path d="M32.5 0H7.5C3.35692 0 0 3.35692 0 7.5V32.5C0 36.6431 3.35692 40 7.5 40H32.5C36.6431 40 40 36.6431 40 32.5V7.5C40 3.35692 36.6431 0 32.5 0ZM36.9231 13.8462H26.8662C28.3323 15.4815 29.2308 17.6323 29.2308 20C29.2308 25.0985 25.0954 29.2308 20 29.2308C14.9031 29.2308 10.7692 25.0985 10.7692 20C10.7692 17.6323 11.6677 15.48 13.1338 13.8462H3.07692V7.5C3.07692 5.06154 5.06154 3.07692 7.5 3.07692H32.5C34.94 3.07692 36.9231 5.06154 36.9231 7.5V13.8462Z" fill="#444444"/>
</svg>
