<svg width="34" height="31" viewBox="0 0 34 31" fill="none" xmlns="http://www.w3.org/2000/svg">
<path fill-rule="evenodd" clip-rule="evenodd" d="M32 8.78867H2V6.16495C2 6.01504 2.06955 5.78114 2.36966 5.53542C2.67309 5.28698 3.16276 5.08248 3.77778 5.08248H30.2222C30.8105 5.08248 31.3125 5.27659 31.6291 5.53492C31.9345 5.78408 32 6.02438 32 6.16495V8.78867ZM14.3367 24.6598L8.33 19.7587L10.3322 18.125L14.3367 21.3924L23.5544 13.8711L25.5567 15.5049L14.3367 24.6598ZM30.2222 27.7423V10.7887H3.77778V27.7423H30.2222ZM28.3333 3.08248H30.2222C31.2241 3.08248 32.185 3.40724 32.8935 3.98531C33.602 4.56339 34 5.34743 34 6.16495V27.7423C34 28.5598 33.602 29.3438 32.8935 29.9219C32.185 30.5 31.2241 30.8248 30.2222 30.8248H3.77778C2.77585 30.8248 1.81496 30.5 1.10649 29.9219C0.398015 29.3438 0 28.5598 0 27.7423V6.16495C0 4.46959 1.68111 3.08248 3.77778 3.08248H5.66667V0H9.44444V3.08248H24.5556V0H28.3333V3.08248Z" fill="#B6B6B6"/>
</svg>
