<svg width="51" height="63" viewBox="0 0 51 63" fill="none" xmlns="http://www.w3.org/2000/svg">
<path d="M51 25.3907C51 11.3871 39.583 0.034668 25.4994 0.034668C11.4161 0.034668 0 11.3871 0 25.3907C0 34.8978 5.26499 43.1781 13.0512 47.5186C8.07649 51.3995 3.50506 56.477 3.50506 62.0347H47.4935C47.4935 56.477 42.922 51.3998 37.9476 47.5186C45.7341 43.1784 51 34.8978 51 25.3907ZM25.4994 5.22838C26.7256 5.22838 27.7206 6.21634 27.7206 7.43496C27.7206 8.65535 26.7256 9.64331 25.4994 9.64331C24.273 9.64331 23.2797 8.65564 23.2797 7.43496C23.2797 6.21663 24.2733 5.22838 25.4994 5.22838ZM25.4994 37.2053C18.9373 37.2053 13.6169 31.9163 13.6169 25.3907C13.6169 18.8651 18.9373 13.5749 25.4994 13.5749C32.0627 13.5749 37.3813 18.8651 37.3813 25.3907C37.3813 31.9163 32.0627 37.2053 25.4994 37.2053ZM31.1763 25.3898C31.1763 28.5075 28.6346 31.0348 25.4991 31.0348C22.3639 31.0348 19.8223 28.5075 19.8223 25.3898C19.8223 22.2726 22.3639 19.7453 25.4991 19.7453C28.6346 19.7453 31.1763 22.2726 31.1763 25.3898Z" fill="white"/>
</svg>
