<svg width="91" height="90" viewBox="0 0 91 90" fill="none" xmlns="http://www.w3.org/2000/svg">
<g clip-path="url(#clip0)">
<path d="M77.2413 39.2553C76.4486 25.7675 65.3302 14.9863 51.9278 14.9863C43.7902 14.9863 35.9104 18.9772 31.0278 25.4888C30.9154 25.4303 30.797 25.3899 30.6831 25.3359C30.3864 25.1921 30.0851 25.0557 29.7779 24.9328C29.6071 24.8654 29.4362 24.8039 29.2639 24.744C28.9597 24.6376 28.6509 24.5432 28.3362 24.4577C28.1639 24.4113 27.993 24.3633 27.8192 24.3244C27.482 24.2479 27.1373 24.1895 26.7896 24.137C26.6383 24.1145 26.4899 24.0846 26.337 24.0681C25.8395 24.0126 25.336 23.9782 24.8249 23.9782C17.3872 23.9782 11.3372 30.0282 11.3372 37.4659C11.3372 37.6563 11.3491 37.8436 11.3611 38.0309V38.0369C5.12829 41.4358 0.84668 48.5544 0.84668 55.6804C0.84668 66.2953 9.48184 74.9319 20.0967 74.9319H56.8254C56.9812 74.9319 57.1356 74.9229 57.2915 74.9109L57.3844 74.899L57.5852 74.9109C57.738 74.9229 57.8909 74.9319 58.0483 74.9319H72.7394C82.6784 74.9319 90.7651 66.8453 90.7651 56.9063C90.7651 48.6802 85.0298 41.3024 77.2413 39.2553ZM72.7394 71.9346H58.0483C57.9598 71.9346 57.8744 71.9272 57.7875 71.9212L57.3814 71.9047L57.0846 71.9212C56.9992 71.9272 56.9123 71.9346 56.8254 71.9346H20.0967C11.1348 71.9346 3.84396 64.6438 3.84396 55.6804C3.84396 49.455 7.89778 42.9929 13.4847 40.3148L14.3344 39.9087V38.9646C14.3344 38.7742 14.3464 38.5809 14.3569 38.3861L14.3704 38.1463L14.3524 37.8316C14.3434 37.7102 14.3344 37.5888 14.3344 37.4659C14.3344 31.6827 19.0417 26.9754 24.8249 26.9754C25.288 26.9754 25.7451 27.0159 26.1992 27.0759C26.3161 27.0908 26.433 27.1103 26.5484 27.1298C26.9485 27.1957 27.3426 27.2827 27.7308 27.3951C27.7832 27.4101 27.8372 27.4205 27.8896 27.4355C28.3167 27.5659 28.7334 27.7308 29.141 27.9166C29.2474 27.9645 29.3508 28.017 29.4557 28.068C29.8154 28.2463 30.1676 28.4411 30.5078 28.6614C33.3956 30.5317 35.3154 33.7763 35.3154 37.4659C35.3154 38.2947 35.9853 38.9646 36.814 38.9646C37.6428 38.9646 38.3127 38.2947 38.3127 37.4659C38.3127 33.3387 36.4454 29.6445 33.517 27.1688C37.8136 21.5489 44.8887 17.9836 51.9278 17.9836C63.5348 17.9836 73.174 27.1778 74.1796 38.7967C72.648 38.6888 70.3551 38.6334 68.0607 38.9825C67.2424 39.1069 66.6804 39.8712 66.8048 40.6895C66.9172 41.4313 67.5556 41.9633 68.284 41.9633C68.3589 41.9633 68.4353 41.9573 68.5103 41.9454C71.8477 41.4403 75.3261 41.9139 75.5299 41.9424C82.5076 43.2687 87.7678 49.6963 87.7678 56.9063C87.7678 65.1923 81.0254 71.9346 72.7394 71.9346Z" fill="#3179CC"/>
</g>
<defs>
<clipPath id="clip0">
<rect width="89.9184" height="89.9184" fill="white" transform="translate(0.84668)"/>
</clipPath>
</defs>
</svg>
