<svg width="20" height="22" viewBox="0 0 20 22" fill="none" xmlns="http://www.w3.org/2000/svg">
<path fill-rule="evenodd" clip-rule="evenodd" d="M14.8819 3.92831H6.58583L10.7339 0.67041L14.8819 3.92831ZM8.81556 8.30222C8.66636 7.98046 8.48448 7.67871 8.27058 7.39672C7.91471 6.94069 7.45195 6.5902 6.87782 6.34643C6.27825 6.09185 5.55722 5.95366 4.70964 5.93317C4.70587 5.93327 4.70212 5.93336 4.69836 5.93346C4.68934 5.93369 4.68034 5.93394 4.67135 5.93419C3.78595 5.95961 3.04037 6.10997 2.42432 6.39495C1.91767 6.62933 1.49862 6.95477 1.16146 7.37667C0.382897 8.29891 0 9.4918 0 10.9453C0 12.3989 0.370134 13.5817 1.1104 14.514C1.4677 14.9688 1.92311 15.3115 2.47951 15.5489C3.0759 15.8033 3.78832 15.9367 4.62029 15.9575C4.64592 15.957 4.67145 15.9564 4.69687 15.9557C5.58894 15.9305 6.35325 15.763 6.98978 15.4588C7.45526 15.2363 7.85241 14.9407 8.18124 14.5741C8.79441 13.8477 9.17063 12.8952 9.28234 11.7276C9.30782 11.4613 9.31954 11.1838 9.31717 10.8952C9.32606 10.4098 9.28849 9.95243 9.20553 9.52258C9.19907 9.48909 9.19233 9.45577 9.18532 9.42262C9.10127 9.02527 8.97772 8.65193 8.81556 8.30222ZM11.1048 10.8805C11.1151 10.8966 11.1256 10.9127 11.1363 10.9285C11.1908 11.0098 11.2506 11.0878 11.3157 11.1626C11.4544 11.3221 11.6173 11.4669 11.806 11.5969C12.133 11.8222 12.4961 11.9968 12.8953 12.1218C12.933 12.1336 12.971 12.1449 13.0093 12.1558C13.3004 12.2387 13.61 12.296 13.9382 12.3282C13.9993 12.3342 14.0611 12.3393 14.1234 12.3435C14.2543 12.3524 14.388 12.3575 14.5246 12.3588C14.6253 12.3579 14.7238 12.3555 14.82 12.3516C14.8419 12.3507 14.8637 12.3498 14.8853 12.3487C15.0352 12.3415 15.1793 12.3305 15.3178 12.3157C15.3257 12.3149 15.3336 12.314 15.3414 12.3132C15.5649 12.2886 15.7736 12.254 15.9679 12.2093C15.9799 12.2066 15.9919 12.2038 16.0038 12.201C16.34 12.1208 16.6323 12.01 16.8821 11.868C16.8933 11.8616 16.9044 11.8552 16.9154 11.8487C16.9856 11.8074 17.0522 11.7636 17.1155 11.7172L17.1538 11.7272C17.1506 11.7368 17.1473 11.7464 17.1439 11.756C17.1137 11.8423 17.0785 11.928 17.0381 12.0128C17.0304 12.0291 17.0224 12.0454 17.0143 12.0616C17.0056 12.0791 16.9966 12.0964 16.9875 12.1138C16.8792 12.3184 16.74 12.5178 16.5667 12.7096C16.5609 12.7165 16.5551 12.7234 16.5493 12.7302C16.2838 13.042 15.945 13.306 15.5329 13.5316C15.4992 13.552 15.4647 13.5717 15.4295 13.5908C15.3832 13.616 15.3357 13.6401 15.287 13.6633C15.2802 13.6666 15.2733 13.6698 15.2664 13.673C15.0433 13.7774 14.7968 13.8624 14.5382 13.9348C14.5288 13.9375 14.5194 13.9401 14.5099 13.9427C14.4599 13.9565 14.4095 13.9698 14.3586 13.9827L13.0313 14.1732L12.3421 14.1932L11.7932 14.1732V15.9575H13.0823C13.0826 15.9575 13.082 15.9575 13.0823 15.9575C13.1503 15.9547 13.2188 15.9515 13.2859 15.948C13.4578 15.9388 13.6269 15.9269 13.7932 15.9122C14.0772 15.8871 14.3532 15.854 14.6213 15.8129C14.6866 15.8029 14.7514 15.7924 14.8157 15.7815C15.1574 15.7233 15.4858 15.6516 15.8009 15.5665C15.9364 15.5283 16.0687 15.4876 16.1979 15.4443C16.8474 15.2268 17.4171 14.9454 17.9068 14.5942C18.5705 14.0829 19.0683 13.4514 19.4384 12.7096C19.8085 11.9478 19.9872 11.0957 20 10.1334C20 8.94047 19.6299 7.93804 18.8768 7.17619C18.5686 6.85205 18.1898 6.59174 17.7405 6.39455C17.092 6.10997 16.2966 5.95686 15.3542 5.93317C15.3448 5.93337 15.3354 5.93358 15.326 5.93381C15.2993 5.93445 15.2728 5.93519 15.2464 5.93605C14.2647 5.96787 13.4422 6.14984 12.7489 6.48532C12.4696 6.62046 12.2113 6.7805 11.9719 6.96568C11.4952 7.34008 11.1493 7.76263 10.9365 8.24061C10.7733 8.60726 10.6884 9.00653 10.6828 9.44168C10.7132 9.99658 10.8476 10.4769 11.1048 10.8805ZM13.8716 10.3031C13.9004 10.3375 13.9309 10.3711 13.963 10.404C14.1102 10.5533 14.2927 10.6656 14.5106 10.7431C14.5202 10.7465 14.5297 10.7498 14.5394 10.7531C14.7687 10.8303 15.036 10.8702 15.3414 10.8752C15.7437 10.8752 16.0841 10.8071 16.3626 10.6901C16.3668 10.6883 16.371 10.6865 16.3752 10.6847C16.656 10.5544 16.8602 10.404 17.0006 10.2236C17.1144 10.1144 17.153 9.91674 17.1538 9.65983C17.1538 9.65729 17.1538 9.65475 17.1538 9.65219C17.1666 9.10086 17.0262 8.62971 16.7326 8.21872C16.7089 8.18556 16.684 8.15364 16.6578 8.12297C16.3776 7.79458 15.9545 7.60889 15.3887 7.57234C15.3637 7.57073 15.3386 7.56941 15.3131 7.56838C15.3013 7.5679 15.2895 7.56749 15.2776 7.56714C14.7543 7.57716 14.3331 7.73755 14.0013 8.0483C13.96 8.08852 13.9212 8.13059 13.8851 8.17448C13.642 8.46972 13.5163 8.84754 13.5163 9.30134C13.5163 9.69413 13.6377 10.0233 13.8716 10.3031ZM6.58583 17.9623H14.8819L10.7339 21.2202L6.58583 17.9623ZM5.83797 13.7702C6.25996 13.2266 6.47612 12.2836 6.48373 10.9453C6.48373 9.57292 6.25762 8.61991 5.80247 8.08398C5.53242 7.76601 5.18174 7.59485 4.74981 7.57002C4.72395 7.56854 4.69779 7.56757 4.67135 7.56714C4.67095 7.56714 4.67055 7.56714 4.67015 7.56714C4.21804 7.56745 3.84042 7.74329 3.53729 8.10514C3.46427 8.1923 3.39558 8.29026 3.33121 8.39915C2.99936 8.94047 2.8462 9.81258 2.8462 10.9453C2.83344 12.0981 2.99936 12.9502 3.31844 13.4915C3.38865 13.6103 3.46458 13.716 3.54622 13.809C3.82652 14.1281 4.17417 14.296 4.58919 14.3204C4.61292 14.3218 4.63687 14.3227 4.66104 14.3232C4.67293 14.3234 4.68488 14.3235 4.69687 14.3235C5.17126 14.3235 5.55191 14.1386 5.83797 13.7702Z" fill="#B6B6B6"/>
</svg>
