<svg width="32" height="31" viewBox="0 0 32 31" fill="none" xmlns="http://www.w3.org/2000/svg">
<path d="M24.6155 8.34614C23.9374 8.34614 23.3848 7.81079 23.3848 7.15383V4.76921C23.3848 4.11225 23.9374 3.5769 24.6155 3.5769H27.0771C27.7552 3.5769 28.3078 4.11225 28.3078 4.76921V7.15383C28.3078 7.81079 27.7552 8.34614 27.0771 8.34614H24.6155Z" fill="white"/>
<path d="M16.0003 10.9548C15.1067 10.9548 14.2821 11.2088 13.572 11.6261C13.7935 11.5593 14.0237 11.5152 14.2661 11.5152C15.5806 11.5152 16.6452 12.5466 16.6452 13.8211C16.6452 15.0921 15.5806 16.1259 14.2661 16.1259C12.9517 16.1259 11.8871 15.0933 11.8871 13.8211C11.8871 13.5839 11.9351 13.3609 12.0027 13.1475C11.5695 13.8354 11.3086 14.6343 11.3086 15.4999C11.3086 18.0121 13.4071 20.0462 16.0015 20.0462C18.5923 20.0462 20.6944 18.0133 20.6944 15.4999C20.6944 12.9865 18.5911 10.9548 16.0003 10.9548Z" fill="white"/>
<path d="M16.0004 8.34629C20.078 8.34629 23.3851 11.5488 23.3851 15.5001C23.3851 19.4514 20.0768 22.654 16.0004 22.654C11.9229 22.654 8.61583 19.4514 8.61583 15.5001C8.61583 11.5488 11.9229 8.34629 16.0004 8.34629ZM16.0004 5.96167C10.5715 5.96167 6.1543 10.2409 6.1543 15.5001C6.1543 20.7594 10.5715 25.0386 16.0004 25.0386C21.4294 25.0386 25.8466 20.7594 25.8466 15.5001C25.8466 10.2409 21.4294 5.96167 16.0004 5.96167Z" fill="white"/>
<path d="M26 0H6C2.68554 0 0 2.60162 0 5.8125V25.1875C0 28.3984 2.68554 31 6 31H26C29.3145 31 32 28.3984 32 25.1875V5.8125C32 2.60162 29.3145 0 26 0ZM29.5385 10.7308H21.4929C22.6658 11.9982 23.3846 13.665 23.3846 15.5C23.3846 19.4513 20.0763 22.6538 16 22.6538C11.9225 22.6538 8.61539 19.4513 8.61539 15.5C8.61539 13.665 9.33415 11.997 10.5071 10.7308H2.46154V5.8125C2.46154 3.92269 4.04923 2.38462 6 2.38462H26C27.952 2.38462 29.5385 3.92269 29.5385 5.8125V10.7308Z" fill="white"/>
</svg>
