<svg width="221" height="144" viewBox="0 0 221 144" fill="none" xmlns="http://www.w3.org/2000/svg">
<g clip-path="url(#clip0)">
<path d="M44.1582 36.4199H48.7869L54.7349 64.0207L60.7291 36.4199H65.3116L65.9365 70.4368H62.1409L61.7706 45.7524L56.0541 70.4368H53.3925L47.7223 45.7524L47.352 70.4368H43.5101L44.1582 36.4199Z" fill="white"/>
<path d="M72.6249 67.9871C71.19 66.0972 70.4725 63.3675 70.4725 59.7745V46.8724C70.4725 43.3494 71.19 40.6663 72.648 38.8464C74.083 37.0266 76.4436 36.1167 79.7301 36.1167C83.0165 36.1167 85.354 37.0266 86.7889 38.8698C88.2238 40.7129 88.9413 43.3727 88.9413 46.8724V59.7978C88.9413 63.3208 88.2238 66.0506 86.7658 67.9404C85.3308 69.8536 82.9702 70.7868 79.7301 70.7868C76.4205 70.8101 74.0598 69.8769 72.6249 67.9871ZM83.271 65.5373C83.8728 64.5107 84.1968 62.9242 84.1968 60.8244V45.9158C84.1968 43.8393 83.8959 42.3228 83.271 41.3195C82.6693 40.3163 81.489 39.8264 79.7301 39.8264C77.948 39.8264 76.7676 40.3163 76.1428 41.3195C75.541 42.3228 75.217 43.8393 75.217 45.9158V60.8244C75.217 62.9242 75.5179 64.4874 76.1428 65.5373C76.7445 66.5639 77.948 67.1005 79.7301 67.1005C81.489 67.0772 82.6693 66.5639 83.271 65.5373Z" fill="white"/>
<path d="M96.7637 69.3869C95.4445 68.4303 94.5419 67.1004 94.0327 65.3972C93.5236 63.6941 93.2921 61.5476 93.2921 58.9812V36.4199H97.782V59.1911C97.782 61.7576 98.0829 63.7174 98.6846 65.0706C99.2864 66.4238 100.49 67.0771 102.295 67.0771C104.1 67.0771 105.304 66.4005 105.905 65.0706C106.507 63.7174 106.808 61.7576 106.808 59.1911V36.4199H111.275V58.9812C111.275 61.5476 111.02 63.6941 110.534 65.3972C110.025 67.1004 109.122 68.4303 107.826 69.3869C106.53 70.3434 104.679 70.8101 102.318 70.8101C99.9575 70.8101 98.0829 70.3434 96.7637 69.3869Z" fill="white"/>
<path d="M116.182 36.4199H119.399L128.98 59.0045V36.4199H132.891V70.4368H129.883L120.185 47.2223V70.4368H116.182V36.4199Z" fill="white"/>
<path d="M141.894 39.9429H136.178V36.4199H152.124V39.9429H146.593V70.4368H141.894V39.9429Z" fill="white"/>
<path d="M160.641 36.4199H165.177L172.375 70.4368H167.908L166.357 61.8742H159.484L157.864 70.4368H153.443L160.641 36.4199ZM165.756 58.4679L162.932 43.1393L160.132 58.4679H165.756Z" fill="white"/>
<path d="M176.055 36.4199H180.683V70.4368H176.055V36.4199Z" fill="white"/>
<path d="M186.122 36.4199H189.339L198.921 59.0045V36.4199H202.832V70.4368H199.847L190.149 47.2223V70.4368H186.145V36.4199H186.122Z" fill="white"/>
<path d="M43.6256 86.8154H52.0037C54.9198 86.8154 57.0259 87.6087 58.3682 89.2185C59.6874 90.8051 60.3354 93.1615 60.3354 96.2412C60.3354 99.0176 59.618 101.164 58.2062 102.704C56.7944 104.244 54.7346 105.014 52.0499 105.014H48.3469V120.856H43.6488V86.8154H43.6256ZM50.4993 101.607C51.8879 101.607 52.9526 101.444 53.7394 101.141C54.5032 100.837 55.0586 100.301 55.3827 99.5542C55.7067 98.8077 55.8918 97.7111 55.8918 96.2879C55.8918 94.5614 55.7761 93.2782 55.5215 92.4616C55.2669 91.645 54.7809 91.085 54.0403 90.7351C53.2997 90.4084 52.1425 90.2218 50.5687 90.2218H48.3701V101.607H50.4993Z" fill="white"/>
<path d="M63.6223 86.8154H76.6985V90.3384H68.3205V101.584H75.1016V104.944H68.3205V117.426H76.7679V120.832H63.5991V86.8154H63.6223Z" fill="white"/>
<path d="M85.9095 86.8154H90.4457L97.6434 120.832H93.1767L91.626 112.27H84.7523L83.1323 120.832H78.7118L85.9095 86.8154ZM91.0243 108.863L88.2008 93.5348L85.4004 108.863H91.0243Z" fill="white"/>
<path d="M101.069 86.8154H105.767V102.867L113.52 86.8154H117.894L111.229 101.817L118.982 120.832H114.4L107.943 104.874L105.767 108.817V120.832H101.069V86.8154Z" fill="white"/>
<path d="M123.171 118.569C121.69 116.796 120.857 114.393 120.695 111.313L124.861 110.17C125 112.363 125.416 114.113 126.134 115.466C126.851 116.819 128.008 117.473 129.651 117.473C130.878 117.473 131.804 117.123 132.429 116.446C133.054 115.769 133.354 114.766 133.354 113.483C133.354 112.083 133.054 110.917 132.475 110.007C131.896 109.073 130.971 108.07 129.675 106.95L124.004 101.911C122.87 100.908 122.037 99.811 121.528 98.6677C121.019 97.5245 120.764 96.078 120.764 94.3981C120.764 91.9017 121.482 89.9652 122.893 88.612C124.305 87.2354 126.249 86.5588 128.679 86.5588C131.341 86.5588 133.354 87.2821 134.72 88.7053C136.085 90.1285 136.895 92.345 137.173 95.3314L133.169 96.4279C133.03 94.4448 132.637 92.9049 132.012 91.8317C131.387 90.7585 130.276 90.2218 128.656 90.2218C127.453 90.2218 126.55 90.5251 125.902 91.1551C125.254 91.785 124.953 92.7183 124.953 93.9548C124.953 94.9581 125.115 95.798 125.462 96.4979C125.81 97.1979 126.365 97.8745 127.175 98.5744L132.892 103.614C134.373 104.92 135.53 106.367 136.409 107.907C137.289 109.447 137.729 111.197 137.729 113.156C137.729 115.653 136.988 117.613 135.484 119.083C133.979 120.529 132.035 121.276 129.651 121.276C126.805 121.206 124.652 120.342 123.171 118.569Z" fill="white"/>
<path fill-rule="evenodd" clip-rule="evenodd" d="M139.598 126.506L163.644 79.7041L164.534 80.1611L140.487 126.963L139.598 126.506Z" fill="white"/>
<path fill-rule="evenodd" clip-rule="evenodd" d="M174.847 116.707L186.442 94.146L187.331 94.6031L175.736 117.164L174.847 116.707Z" fill="white"/>
<path fill-rule="evenodd" clip-rule="evenodd" d="M140.043 127.235H40.9875V126.235H140.043V127.235Z" fill="white"/>
<path fill-rule="evenodd" clip-rule="evenodd" d="M179.79 107.6L163.658 80.1861L164.52 79.679L180.652 107.093L179.79 107.6Z" fill="white"/>
<path fill-rule="evenodd" clip-rule="evenodd" d="M205.461 125.969L186.298 94.6355L187.151 94.1138L206.314 125.448L205.461 125.969Z" fill="white"/>
<path fill-rule="evenodd" clip-rule="evenodd" d="M15.7122 76.4559L51.0527 9.5188L51.937 9.98569L16.5965 76.9228L15.7122 76.4559Z" fill="white"/>
<path fill-rule="evenodd" clip-rule="evenodd" d="M51.5736 10.1201L63.4463 29.3917L62.5949 29.9162L50.7222 10.6446L51.5736 10.1201Z" fill="white"/>
<path fill-rule="evenodd" clip-rule="evenodd" d="M111.067 77.1897H16.0154V76.1897H111.067V77.1897Z" fill="white"/>
</g>
<defs>
<clipPath id="clip0">
<rect width="221" height="144" fill="white"/>
</clipPath>
</defs>
</svg>
