<svg width="221" height="144" viewBox="0 0 221 144" fill="none" xmlns="http://www.w3.org/2000/svg">
<g clip-path="url(#clip0)">
<path d="M44.1578 36.4199H48.7866L54.7345 64.0207L60.7287 36.4199H65.3112L65.9361 70.4368H62.1405L61.7702 45.7524L56.0537 70.4368H53.3922L47.7219 45.7524L47.3516 70.4368H43.5098L44.1578 36.4199Z" fill="black"/>
<path d="M72.624 67.9871C71.1891 66.0972 70.4717 63.3675 70.4717 59.7745V46.8724C70.4717 43.3494 71.1891 40.6663 72.6472 38.8464C74.0821 37.0266 76.4428 36.1167 79.7292 36.1167C83.0156 36.1167 85.3531 37.0266 86.788 38.8698C88.223 40.7129 88.9404 43.3727 88.9404 46.8724V59.7978C88.9404 63.3208 88.223 66.0506 86.7649 67.9404C85.33 69.8536 82.9693 70.7868 79.7292 70.7868C76.4196 70.8101 74.059 69.8769 72.624 67.9871ZM83.2702 65.5373C83.8719 64.5107 84.1959 62.9242 84.1959 60.8244V45.9158C84.1959 43.8393 83.8951 42.3228 83.2702 41.3195C82.6685 40.3163 81.4881 39.8264 79.7292 39.8264C77.9471 39.8264 76.7668 40.3163 76.1419 41.3195C75.5402 42.3228 75.2162 43.8393 75.2162 45.9158V60.8244C75.2162 62.9242 75.517 64.4874 76.1419 65.5373C76.7436 66.5639 77.9471 67.1005 79.7292 67.1005C81.4881 67.0772 82.6685 66.5639 83.2702 65.5373Z" fill="black"/>
<path d="M96.7636 69.3869C95.4444 68.4303 94.5418 67.1004 94.0326 65.3972C93.5234 63.6941 93.292 61.5476 93.292 58.9812V36.4199H97.7819V59.1911C97.7819 61.7576 98.0828 63.7174 98.6845 65.0706C99.2862 66.4238 100.49 67.0771 102.295 67.0771C104.1 67.0771 105.304 66.4005 105.905 65.0706C106.507 63.7174 106.808 61.7576 106.808 59.1911V36.4199H111.275V58.9812C111.275 61.5476 111.02 63.6941 110.534 65.3972C110.025 67.1004 109.122 68.4303 107.826 69.3869C106.53 70.3434 104.679 70.8101 102.318 70.8101C99.9574 70.8101 98.0828 70.3434 96.7636 69.3869Z" fill="black"/>
<path d="M116.182 36.4199H119.399L128.98 59.0045V36.4199H132.891V70.4368H129.883L120.186 47.2223V70.4368H116.182V36.4199Z" fill="black"/>
<path d="M141.894 39.9429H136.178V36.4199H152.124V39.9429H146.592V70.4368H141.894V39.9429Z" fill="black"/>
<path d="M160.64 36.4199H165.176L172.374 70.4368H167.907L166.357 61.8742H159.483L157.863 70.4368H153.442L160.64 36.4199ZM165.755 58.4679L162.931 43.1393L160.131 58.4679H165.755Z" fill="black"/>
<path d="M176.055 36.4199H180.683V70.4368H176.055V36.4199Z" fill="black"/>
<path d="M186.122 36.4199H189.339L198.921 59.0045V36.4199H202.832V70.4368H199.846L190.149 47.2223V70.4368H186.145V36.4199H186.122Z" fill="black"/>
<path d="M43.625 86.8154H52.003C54.9192 86.8154 57.0252 87.6087 58.3676 89.2185C59.6868 90.8051 60.3348 93.1615 60.3348 96.2412C60.3348 99.0176 59.6174 101.164 58.2056 102.704C56.7938 104.244 54.734 105.014 52.0493 105.014H48.3463V120.856H43.6481V86.8154H43.625ZM50.4987 101.607C51.8873 101.607 52.9519 101.444 53.7388 101.141C54.5026 100.837 55.058 100.301 55.382 99.5542C55.7061 98.8077 55.8912 97.7111 55.8912 96.2879C55.8912 94.5614 55.7755 93.2782 55.5209 92.4616C55.2663 91.645 54.7803 91.085 54.0397 90.7351C53.2991 90.4084 52.1419 90.2218 50.5681 90.2218H48.3695V101.607H50.4987Z" fill="black"/>
<path d="M63.6218 86.8154H76.698V90.3384H68.32V101.584H75.1011V104.944H68.32V117.426H76.7674V120.832H63.5986V86.8154H63.6218Z" fill="black"/>
<path d="M85.9087 86.8154H90.4448L97.6426 120.832H93.1758L91.6252 112.27H84.7515L83.1314 120.832H78.7109L85.9087 86.8154ZM91.0234 108.863L88.1999 93.5348L85.3995 108.863H91.0234Z" fill="black"/>
<path d="M101.068 86.8154H105.767V102.867L113.52 86.8154H117.894L111.228 101.817L118.982 120.832H114.399L107.942 104.874L105.767 108.817V120.832H101.068V86.8154V86.8154Z" fill="black"/>
<path d="M123.171 118.569C121.69 116.796 120.856 114.393 120.694 111.313L124.86 110.17C124.999 112.363 125.416 114.113 126.133 115.466C126.851 116.819 128.008 117.473 129.651 117.473C130.878 117.473 131.803 117.123 132.428 116.446C133.053 115.769 133.354 114.766 133.354 113.483C133.354 112.083 133.053 110.917 132.475 110.007C131.896 109.073 130.97 108.07 129.674 106.95L124.004 101.911C122.87 100.908 122.037 99.811 121.528 98.6677C121.018 97.5245 120.764 96.078 120.764 94.3981C120.764 91.9017 121.481 89.9652 122.893 88.612C124.305 87.2354 126.249 86.5588 128.679 86.5588C131.34 86.5588 133.354 87.2821 134.719 88.7053C136.085 90.1285 136.895 92.345 137.173 95.3314L133.169 96.4279C133.03 94.4448 132.637 92.9049 132.012 91.8317C131.387 90.7585 130.276 90.2218 128.656 90.2218C127.452 90.2218 126.55 90.5251 125.902 91.1551C125.254 91.785 124.953 92.7183 124.953 93.9548C124.953 94.9581 125.115 95.798 125.462 96.4979C125.809 97.1979 126.365 97.8745 127.175 98.5744L132.891 103.614C134.372 104.92 135.53 106.367 136.409 107.907C137.288 109.447 137.728 111.197 137.728 113.156C137.728 115.653 136.988 117.613 135.483 119.083C133.979 120.529 132.035 121.276 129.651 121.276C126.804 121.206 124.652 120.342 123.171 118.569Z" fill="black"/>
<path d="M164.089 79.9326L140.043 126.735" stroke="black" stroke-miterlimit="10"/>
<path d="M186.886 94.3745L175.291 116.936" stroke="black" stroke-miterlimit="10"/>
<path d="M40.9873 126.735H140.043" stroke="black" stroke-miterlimit="10"/>
<path d="M164.089 79.9326L180.22 107.347" stroke="black" stroke-miterlimit="10"/>
<path d="M186.725 94.3745L205.888 125.708" stroke="black" stroke-miterlimit="10"/>
<path d="M51.4949 9.75244L16.1543 76.6896" stroke="black" stroke-miterlimit="10"/>
<path d="M63.0202 29.6539L51.1475 10.3823" stroke="black" stroke-miterlimit="10"/>
<path d="M16.0156 76.6897H111.067" stroke="black" stroke-miterlimit="10"/>
</g>
<defs>
<clipPath id="clip0">
<rect width="221" height="144" fill="white"/>
</clipPath>
</defs>
</svg>
