<svg width="81" height="81" viewBox="0 0 81 81" fill="none" xmlns="http://www.w3.org/2000/svg">
<g clip-path="url(#clip0)">
<mask id="path-1-inside-1" fill="white">
<path d="M77.5705 74.6438C77.1324 74.1638 76.3763 74.1532 75.8834 74.5766L74.4604 75.7985C71.4782 78.3596 67.186 78.7615 63.7798 76.7989L44.3518 65.6031C45.548 62.268 44.4443 58.5469 41.6146 56.4051L48.2132 45.2348L58.1321 50.1102C58.9497 50.512 59.8233 50.7157 60.729 50.7157C60.7291 50.7157 60.7291 50.7157 60.7293 50.7157C62.9955 50.7157 65.0242 49.4528 66.0235 47.4198C66.5907 46.266 66.7628 44.9881 66.5306 43.7466L68.8472 44.8857C69.0156 44.9684 69.1943 45.0078 69.37 45.0078C69.8356 45.0078 70.2821 44.7328 70.4722 44.2638C70.7083 43.6806 70.4199 43.014 69.8554 42.7364L63.3743 39.5497C63.3606 39.5428 63.3475 39.5352 63.3334 39.5283L56.5018 36.1704L55.711 35.7815C55.7102 35.7812 55.7095 35.7809 55.7087 35.7806L54.0591 34.9698L56.1438 32.8851C56.7905 32.2383 57.2673 31.4672 57.5543 30.6265C59.5583 31.6987 61.7949 32.2491 64.112 32.2227C71.5437 32.1388 77.5853 26.0127 77.5717 18.5804C77.558 11.0832 71.4543 4.98806 63.9539 4.98806C61.7119 4.98806 59.5967 5.53601 57.7297 6.50002C57.7346 6.40404 57.7371 6.30744 57.7371 6.21021C57.7371 2.92862 54.9527 0.284872 51.6224 0.517566C48.8112 0.713896 46.5339 2.9912 46.3376 5.80241C46.105 9.13285 48.7486 11.9171 52.0302 11.9171C52.0536 11.9171 52.0767 11.9155 52.1001 11.9153C51.1641 13.5671 50.5637 15.432 50.3912 17.4184H29.158C26.8236 17.4184 24.7039 18.1739 23.0283 19.6037C23.0003 19.6276 22.9735 19.6529 22.9457 19.6771L17.725 17.1111L18.6076 15.3461C18.8775 14.8063 18.7301 14.131 18.2282 13.7958C17.6214 13.3902 16.8184 13.6174 16.5025 14.249L15.5949 16.0643L12.1216 14.3571C11.5384 14.0704 10.809 14.2699 10.5049 14.8442C10.1903 15.4385 10.431 16.1709 11.0299 16.4651L14.5335 18.187L13.698 19.8578C13.4146 20.4245 13.5925 21.1352 14.14 21.4541C14.3298 21.5646 14.5356 21.6165 14.7381 21.6165C15.1733 21.6165 15.5925 21.376 15.8004 20.9603L16.6636 19.2339L21.3304 21.5277C20.6945 22.4853 20.2227 23.5662 19.9539 24.7096C19.4832 26.7124 19.6527 28.8222 20.4315 30.6505C21.2947 32.677 22.8555 34.2978 24.9457 35.338L26.6866 36.2043C27.2734 36.4963 27.9857 36.2573 28.2778 35.6705C28.5698 35.0837 28.3309 34.3714 27.7441 34.0793L26.0032 33.213C22.2962 31.3683 21.6724 27.7719 22.2646 25.2528C22.4727 24.368 22.8752 23.4316 23.4879 22.5882L41.1064 31.2476L39.8961 32.4579C38.5541 33.7998 37.9383 35.7188 38.2485 37.5908C38.5588 39.4629 39.761 41.0804 41.4641 41.9175L46.0768 44.1848L41.6884 51.6136L33.177 46.994L37.196 40.2052C37.4429 39.7882 37.4186 39.2483 37.091 38.844C36.9816 38.709 36.8382 38.605 36.6826 38.5276L32.6252 36.5086C32.0384 36.2166 31.3261 36.4555 31.034 37.0423C30.742 37.6292 30.9809 38.3414 31.5677 38.6336L34.5033 40.0944L25.7485 54.8828L4.89861 42.8673C4.33068 42.5399 3.60498 42.735 3.27787 43.3029C2.9506 43.8708 3.14568 44.5965 3.71344 44.9237L62.5948 78.8554C64.4031 79.8975 66.4099 80.4087 68.4077 80.4087C71.1351 80.4087 73.845 79.4556 76.0067 77.5992L77.4675 76.3446C77.9741 75.91 78.0237 75.1406 77.5705 74.6438ZM62.3065 41.67C63.1404 42.0865 63.7652 42.7999 64.0663 43.6832C64.3698 44.5736 64.3084 45.5289 63.8935 46.3732C63.2966 47.588 62.084 48.3426 60.7293 48.3426C60.1898 48.3426 59.6682 48.2207 59.1794 47.9804L57.86 47.3319L60.9668 41.0112L62.3065 41.67ZM63.9539 29.8502C61.7565 29.8502 59.6514 29.2235 57.8302 28.0349C57.6796 26.7181 57.0949 25.4988 56.1436 24.5477C55.4184 23.8225 54.5494 23.3268 53.6277 23.0592C53.1753 22.0164 52.8889 20.9228 52.7717 19.792H69.525L69.434 21.6914C69.4026 22.3461 69.908 22.9022 70.5625 22.9336C70.5819 22.9345 70.6011 22.935 70.6203 22.935C71.2497 22.935 71.7742 22.4404 71.8046 21.805L71.9009 19.792H75.1348C74.5406 25.4365 69.7533 29.8502 63.9539 29.8502ZM63.9539 7.36182C67.8684 7.36182 71.3204 9.37366 73.3347 12.4165H70.9611C70.3056 12.4165 69.7744 12.9479 69.7744 13.6032C69.7744 14.2585 70.3058 14.7899 70.9611 14.7899H74.5303C74.8326 15.6249 75.0386 16.5055 75.1349 17.4184H52.7728C52.8691 16.5054 53.0752 15.6249 53.3774 14.7899H65.4228C66.0783 14.7899 66.6095 14.2585 66.6095 13.6032C66.6095 12.9479 66.0781 12.4165 65.4228 12.4165H54.5731C56.5873 9.37381 60.0395 7.36182 63.9539 7.36182ZM52.0301 9.54377C50.1919 9.54377 48.6968 8.0485 48.6968 6.21037C48.6968 4.37223 50.1921 2.87696 52.0301 2.87696C53.868 2.87696 55.3635 4.37223 55.3635 6.21037C55.3635 8.0485 53.868 9.54377 52.0301 9.54377ZM25.3268 20.8476C26.3422 20.2024 27.6119 19.792 29.158 19.792H50.3865C50.4774 20.8573 50.6924 21.896 51.0278 22.9014C49.8475 23.0921 48.7145 23.6398 47.8063 24.5477L42.8796 29.4746L25.3268 20.8476ZM42.5108 39.7877C41.4938 39.2875 40.7754 38.3211 40.5902 37.2028C40.4047 36.0844 40.7726 34.9381 41.5743 34.1366L49.4843 26.2264C50.171 25.5399 51.0729 25.1967 51.9748 25.1967C52.8766 25.1967 53.7788 25.54 54.4651 26.2264C55.1303 26.8917 55.4969 27.7761 55.4969 28.7169C55.4969 29.6576 55.1306 30.5421 54.4651 31.2074L51.2077 34.4648C50.937 34.7355 50.8134 35.1204 50.8761 35.4981C50.9389 35.8758 51.1798 36.2002 51.5233 36.3691L55.2729 38.2122L58.8362 39.9644L55.7293 46.2852L42.5108 39.7877ZM42.2476 64.3909L27.8053 56.0683L31.9672 49.0382L40.4804 53.6588L38.9934 56.1758C38.8319 56.4492 38.7867 56.7762 38.8681 57.0832C38.9494 57.3903 39.1504 57.6519 39.4262 57.8097L39.5442 57.8772C41.8778 59.2107 42.9319 61.9045 42.2476 64.3909Z"/>
</mask>
<path d="M77.5705 74.6438C77.1324 74.1638 76.3763 74.1532 75.8834 74.5766L74.4604 75.7985C71.4782 78.3596 67.186 78.7615 63.7798 76.7989L44.3518 65.6031C45.548 62.268 44.4443 58.5469 41.6146 56.4051L48.2132 45.2348L58.1321 50.1102C58.9497 50.512 59.8233 50.7157 60.729 50.7157C60.7291 50.7157 60.7291 50.7157 60.7293 50.7157C62.9955 50.7157 65.0242 49.4528 66.0235 47.4198C66.5907 46.266 66.7628 44.9881 66.5306 43.7466L68.8472 44.8857C69.0156 44.9684 69.1943 45.0078 69.37 45.0078C69.8356 45.0078 70.2821 44.7328 70.4722 44.2638C70.7083 43.6806 70.4199 43.014 69.8554 42.7364L63.3743 39.5497C63.3606 39.5428 63.3475 39.5352 63.3334 39.5283L56.5018 36.1704L55.711 35.7815C55.7102 35.7812 55.7095 35.7809 55.7087 35.7806L54.0591 34.9698L56.1438 32.8851C56.7905 32.2383 57.2673 31.4672 57.5543 30.6265C59.5583 31.6987 61.7949 32.2491 64.112 32.2227C71.5437 32.1388 77.5853 26.0127 77.5717 18.5804C77.558 11.0832 71.4543 4.98806 63.9539 4.98806C61.7119 4.98806 59.5967 5.53601 57.7297 6.50002C57.7346 6.40404 57.7371 6.30744 57.7371 6.21021C57.7371 2.92862 54.9527 0.284872 51.6224 0.517566C48.8112 0.713896 46.5339 2.9912 46.3376 5.80241C46.105 9.13285 48.7486 11.9171 52.0302 11.9171C52.0536 11.9171 52.0767 11.9155 52.1001 11.9153C51.1641 13.5671 50.5637 15.432 50.3912 17.4184H29.158C26.8236 17.4184 24.7039 18.1739 23.0283 19.6037C23.0003 19.6276 22.9735 19.6529 22.9457 19.6771L17.725 17.1111L18.6076 15.3461C18.8775 14.8063 18.7301 14.131 18.2282 13.7958C17.6214 13.3902 16.8184 13.6174 16.5025 14.249L15.5949 16.0643L12.1216 14.3571C11.5384 14.0704 10.809 14.2699 10.5049 14.8442C10.1903 15.4385 10.431 16.1709 11.0299 16.4651L14.5335 18.187L13.698 19.8578C13.4146 20.4245 13.5925 21.1352 14.14 21.4541C14.3298 21.5646 14.5356 21.6165 14.7381 21.6165C15.1733 21.6165 15.5925 21.376 15.8004 20.9603L16.6636 19.2339L21.3304 21.5277C20.6945 22.4853 20.2227 23.5662 19.9539 24.7096C19.4832 26.7124 19.6527 28.8222 20.4315 30.6505C21.2947 32.677 22.8555 34.2978 24.9457 35.338L26.6866 36.2043C27.2734 36.4963 27.9857 36.2573 28.2778 35.6705C28.5698 35.0837 28.3309 34.3714 27.7441 34.0793L26.0032 33.213C22.2962 31.3683 21.6724 27.7719 22.2646 25.2528C22.4727 24.368 22.8752 23.4316 23.4879 22.5882L41.1064 31.2476L39.8961 32.4579C38.5541 33.7998 37.9383 35.7188 38.2485 37.5908C38.5588 39.4629 39.761 41.0804 41.4641 41.9175L46.0768 44.1848L41.6884 51.6136L33.177 46.994L37.196 40.2052C37.4429 39.7882 37.4186 39.2483 37.091 38.844C36.9816 38.709 36.8382 38.605 36.6826 38.5276L32.6252 36.5086C32.0384 36.2166 31.3261 36.4555 31.034 37.0423C30.742 37.6292 30.9809 38.3414 31.5677 38.6336L34.5033 40.0944L25.7485 54.8828L4.89861 42.8673C4.33068 42.5399 3.60498 42.735 3.27787 43.3029C2.9506 43.8708 3.14568 44.5965 3.71344 44.9237L62.5948 78.8554C64.4031 79.8975 66.4099 80.4087 68.4077 80.4087C71.1351 80.4087 73.845 79.4556 76.0067 77.5992L77.4675 76.3446C77.9741 75.91 78.0237 75.1406 77.5705 74.6438ZM62.3065 41.67C63.1404 42.0865 63.7652 42.7999 64.0663 43.6832C64.3698 44.5736 64.3084 45.5289 63.8935 46.3732C63.2966 47.588 62.084 48.3426 60.7293 48.3426C60.1898 48.3426 59.6682 48.2207 59.1794 47.9804L57.86 47.3319L60.9668 41.0112L62.3065 41.67ZM63.9539 29.8502C61.7565 29.8502 59.6514 29.2235 57.8302 28.0349C57.6796 26.7181 57.0949 25.4988 56.1436 24.5477C55.4184 23.8225 54.5494 23.3268 53.6277 23.0592C53.1753 22.0164 52.8889 20.9228 52.7717 19.792H69.525L69.434 21.6914C69.4026 22.3461 69.908 22.9022 70.5625 22.9336C70.5819 22.9345 70.6011 22.935 70.6203 22.935C71.2497 22.935 71.7742 22.4404 71.8046 21.805L71.9009 19.792H75.1348C74.5406 25.4365 69.7533 29.8502 63.9539 29.8502ZM63.9539 7.36182C67.8684 7.36182 71.3204 9.37366 73.3347 12.4165H70.9611C70.3056 12.4165 69.7744 12.9479 69.7744 13.6032C69.7744 14.2585 70.3058 14.7899 70.9611 14.7899H74.5303C74.8326 15.6249 75.0386 16.5055 75.1349 17.4184H52.7728C52.8691 16.5054 53.0752 15.6249 53.3774 14.7899H65.4228C66.0783 14.7899 66.6095 14.2585 66.6095 13.6032C66.6095 12.9479 66.0781 12.4165 65.4228 12.4165H54.5731C56.5873 9.37381 60.0395 7.36182 63.9539 7.36182ZM52.0301 9.54377C50.1919 9.54377 48.6968 8.0485 48.6968 6.21037C48.6968 4.37223 50.1921 2.87696 52.0301 2.87696C53.868 2.87696 55.3635 4.37223 55.3635 6.21037C55.3635 8.0485 53.868 9.54377 52.0301 9.54377ZM25.3268 20.8476C26.3422 20.2024 27.6119 19.792 29.158 19.792H50.3865C50.4774 20.8573 50.6924 21.896 51.0278 22.9014C49.8475 23.0921 48.7145 23.6398 47.8063 24.5477L42.8796 29.4746L25.3268 20.8476ZM42.5108 39.7877C41.4938 39.2875 40.7754 38.3211 40.5902 37.2028C40.4047 36.0844 40.7726 34.9381 41.5743 34.1366L49.4843 26.2264C50.171 25.5399 51.0729 25.1967 51.9748 25.1967C52.8766 25.1967 53.7788 25.54 54.4651 26.2264C55.1303 26.8917 55.4969 27.7761 55.4969 28.7169C55.4969 29.6576 55.1306 30.5421 54.4651 31.2074L51.2077 34.4648C50.937 34.7355 50.8134 35.1204 50.8761 35.4981C50.9389 35.8758 51.1798 36.2002 51.5233 36.3691L55.2729 38.2122L58.8362 39.9644L55.7293 46.2852L42.5108 39.7877ZM42.2476 64.3909L27.8053 56.0683L31.9672 49.0382L40.4804 53.6588L38.9934 56.1758C38.8319 56.4492 38.7867 56.7762 38.8681 57.0832C38.9494 57.3903 39.1504 57.6519 39.4262 57.8097L39.5442 57.8772C41.8778 59.2107 42.9319 61.9045 42.2476 64.3909Z" fill="#3179CC" stroke="#3179CC" stroke-width="2" mask="url(#path-1-inside-1)"/>
</g>
<defs>
<clipPath id="clip0">
<rect width="79.9057" height="79.9057" fill="white" transform="translate(0.546875 0.503174)"/>
</clipPath>
</defs>
</svg>
