<svg width="44" height="44" viewBox="0 0 44 44" fill="none" xmlns="http://www.w3.org/2000/svg">
<g clip-path="url(#clip0)">
<path fill-rule="evenodd" clip-rule="evenodd" d="M37.8682 25.3821C39.3277 26.8071 40.8682 28.1478 42.1772 29.7165C42.7555 30.4136 43.303 31.1329 43.7218 31.9419C44.3152 33.0919 43.7777 34.3575 42.7465 34.4261L36.3365 34.4232C34.6832 34.5604 33.3644 33.8949 32.2554 32.7645C31.3679 31.8605 30.5461 30.8984 29.6927 29.964C29.3428 29.582 28.9767 29.2226 28.5392 28.9386C27.6642 28.3706 26.9046 28.5445 26.4046 29.4571C25.8952 30.3854 25.7797 31.4132 25.7297 32.4478C25.661 33.9572 25.2048 34.354 23.6886 34.4231C20.4483 34.5759 17.3731 34.0857 14.5163 32.4511C11.9977 31.01 10.0446 28.9757 8.34469 26.6726C5.03486 22.1881 2.50019 17.2603 0.222123 12.1944C-0.290651 11.053 0.0843523 10.4404 1.34366 10.4187C3.43481 10.3781 5.52566 10.381 7.61926 10.4158C8.46916 10.4282 9.03181 10.9157 9.35997 11.7186C10.4913 14.5005 11.8757 17.1472 13.6134 19.6005C14.0761 20.2536 14.548 20.9068 15.2199 21.3665C15.9633 21.8755 16.5293 21.7068 16.879 20.8787C17.1009 20.3537 17.198 19.7881 17.2481 19.2258C17.4137 17.2911 17.4356 15.3597 17.145 13.4317C16.9666 12.2285 16.2889 11.4496 15.0882 11.2219C14.4756 11.1058 14.5668 10.8778 14.8634 10.5281C15.3787 9.925 15.8633 9.54956 16.8292 9.54956H24.0736C25.2141 9.77465 25.4673 10.287 25.6235 11.4346L25.6297 19.4815C25.6172 19.9258 25.8516 21.2441 26.6518 21.5381C27.2922 21.7474 27.7143 21.2351 28.0986 20.829C29.8331 18.9881 31.071 16.8125 32.1769 14.5598C32.6677 13.5692 33.0897 12.5405 33.4987 11.5126C33.8017 10.7499 34.2772 10.3746 35.1363 10.3912L42.1086 10.3974C42.3153 10.3974 42.5245 10.4005 42.7247 10.4347C43.8996 10.635 44.2215 11.1404 43.8587 12.2876C43.2869 14.0876 42.1745 15.5876 41.0868 17.0946C39.924 18.7035 38.6805 20.2573 37.5274 21.8757C36.4681 23.3536 36.5522 24.0985 37.8682 25.3821Z" fill="white"/>
</g>
<defs>
<clipPath id="clip0">
<rect width="44" height="44" fill="white"/>
</clipPath>
</defs>
</svg>
