<svg width="52" height="52" viewBox="0 0 52 52" fill="none" xmlns="http://www.w3.org/2000/svg">
<path d="M26 0C11.664 0 0 11.663 0 26C0 40.337 11.664 52 26 52C40.336 52 52 40.337 52 26C52 11.663 40.336 0 26 0ZM26 50C12.767 50 2 39.233 2 26C2 12.767 12.767 2 26 2C39.233 2 50 12.767 50 26C50 39.233 39.233 50 26 50Z" fill="#3179CC"/>
<path d="M26 10C25.448 10 25 10.447 25 11V33C25 33.553 25.448 34 26 34C26.552 34 27 33.553 27 33V11C27 10.447 26.552 10 26 10Z" fill="#3179CC"/>
<path d="M26 37C25.448 37 25 37.447 25 38V40C25 40.553 25.448 41 26 41C26.552 41 27 40.553 27 40V38C27 37.447 26.552 37 26 37Z" fill="#3179CC"/>
</svg>