<svg width="38" height="37" viewBox="0 0 38 37" fill="none" xmlns="http://www.w3.org/2000/svg">
<path d="M36.5189 7.71575C35.1472 6.12809 32.6147 5.48047 27.7781 5.48047H10.2215C5.27428 5.48047 2.69886 6.16986 1.33233 7.86017C0 9.50822 0 11.9365 0 15.2973V21.7029C0 28.2139 1.5808 31.5196 10.2215 31.5196H27.7782C31.9725 31.5196 34.2966 30.9482 35.8002 29.5471C37.3421 28.1103 38 25.7643 38 21.7029V15.2973C38 11.753 37.8969 9.31045 36.5189 7.71575ZM24.3961 19.3845L16.4237 23.4415C16.2455 23.5322 16.0506 23.5772 15.8559 23.5772C15.6355 23.5772 15.4156 23.5194 15.2208 23.4046C14.8541 23.1882 14.6301 22.8011 14.6301 22.3836V14.2957C14.6301 13.8789 14.8535 13.4922 15.2195 13.2757C15.5856 13.0591 16.041 13.0443 16.4209 13.2365L24.3933 17.2674C24.7989 17.4724 25.0536 17.8801 25.0543 18.325C25.0547 18.7702 24.8011 19.1785 24.3961 19.3845Z" fill="white"/>
</svg>
